<?xml version="1.0" encoding="utf-8"?>
<!-- Generator: Adobe Illustrator 24.1.1, SVG Export Plug-In . SVG Version: 6.00 Build 0)  -->
<svg version="1.1" id="Camada_1" xmlns="http://www.w3.org/2000/svg" xmlns:xlink="http://www.w3.org/1999/xlink" x="0px" y="0px"
	 viewBox="0 0 512 512" style="enable-background:new 0 0 512 512;" xml:space="preserve">
<style type="text/css">
	.st0{fill:#4082C4;}
	.st1{fill:#FCCC0D;}
</style>
<path class="st0" d="M425.74,511.6H86.3c-47.64,0-86.26-38.62-86.26-86.26V85.9c0-47.64,38.62-86.26,86.26-86.26h339.44
	C473.38-0.37,512,38.25,512,85.9v339.44C512,472.97,473.38,511.6,425.74,511.6z"/>
<g>
	<g>
		<path class="st1" d="M74.34,298.91c2.22-4.97,3.72-10.24,7.32-14.59c13.38-16.16,37.77-16.24,50.86,0.11
			c1.75,2.19,3.15,2.27,5.52,1.46c14.8-5.05,29.67-9.89,44.44-15.01c2.52-0.87,3.34-0.23,3.8,2.04c0.69,3.48,1.79,6.86,3.38,10
			c1.16,2.29,0.55,3.12-1.72,3.86c-14.97,4.92-29.89,9.98-44.86,14.89c-2.2,0.72-3.34,1.42-3.36,4.2
			c-0.08,15.2-11.34,27.39-24.53,30.89c-15.59,4.15-33.73-5.16-38.83-20.43c-0.53-1.58-0.38-3.54-2.05-4.65
			C74.34,307.43,74.34,303.17,74.34,298.91z"/>
		<path class="st1" d="M258.41,310.48c-31.16-0.23-56.37-25.52-56.21-56.39c0.17-31.19,25.73-56.36,56.89-56.01
			c31.17,0.35,56.08,25.66,55.79,56.69C314.59,285.61,289.15,310.7,258.41,310.48z"/>
		<path class="st1" d="M342.55,146.55c-1.85-0.1-3.56,0.21-4.89-0.35c-4.14-1.75-5.66,0.62-7.47,3.73
			c-8.24,14.14-16.74,28.14-25.03,42.25c-1.14,1.94-1.92,2.51-3.83,0.97c-2.95-2.36-6.23-4.27-9.69-5.77
			c-2.11-0.91-1.97-1.86-0.91-3.63c8.85-14.74,17.53-29.58,26.45-44.29c1.31-2.16,1-3.37-0.46-5.14
			c-8.43-10.24-9.82-24.31-3.66-35.75c6.46-12,18.77-18.65,32.23-17.43c12.92,1.18,23.97,10.26,27.95,22.68
			C379.98,124.9,364.44,146.27,342.55,146.55z"/>
		<path class="st1" d="M292.25,430.21c-15.84,0.04-28.22-9.46-32.61-24.38c-3.85-13.06,1.94-28.16,13.91-35.67
			c2.08-1.31,2.5-2.38,1.92-4.76c-2.74-11.19-5.16-22.46-7.81-33.68c-0.55-2.3-0.35-3.51,2.36-3.71c3.76-0.28,7.41-1.31,10.97-2.53
			c1.71-0.59,2.4-0.35,2.83,1.65c2.45,11.26,5.15,22.47,7.64,33.72c0.57,2.57,1.17,3.98,4.45,4.41c15.11,2.01,25.95,13.3,28,28.48
			c1.87,13.81-6.12,27.79-19.44,33.75C300.34,429.34,295.97,430.33,292.25,430.21z"/>
		<path class="st1" d="M437.7,268.55c0.07,16.83-12.52,30.66-29.22,32.6c-16.96,1.97-31.53-9.53-35.09-24.22
			c-0.61-2.51-1.71-3.25-3.95-3.45c-10.69-0.97-21.38-2.07-32.07-2.99c-5.5-0.48-5.46-0.35-4.76-5.71c0.37-2.81,0.81-5.66,0.69-8.46
			c-0.11-2.73,0.99-3.05,3.28-2.81c10.68,1.14,21.38,2.04,32.04,3.3c3.71,0.44,5.82,0.12,7.83-3.88
			c6.54-12.97,22.35-19.75,35.94-16.2C427.5,240.68,437.64,253.43,437.7,268.55z"/>
		<path class="st1" d="M126.64,160.58c0.01-19.11,15.95-33.82,35.37-32.64c18.2,1.11,32.46,18.51,30.01,36.75
			c-0.42,3.14-1.15,6.29-2.76,9.06c-1.13,1.95-0.58,3.1,0.93,4.49c6.07,5.61,12,11.38,18.08,16.99c1.5,1.38,2.06,2.25,0.14,3.77
			c-2.88,2.27-5.45,4.94-7.52,7.96c-1.7,2.47-2.76,1.81-4.52,0.08c-5.64-5.55-11.51-10.87-17.15-16.42
			c-1.66-1.64-2.88-2.03-5.13-0.87C152.51,200.89,126.63,184.92,126.64,160.58z"/>
	</g>
</g>
</svg>
