<?xml version="1.0" encoding="utf-8"?>
<!-- Generator: Adobe Illustrator 24.1.1, SVG Export Plug-In . SVG Version: 6.00 Build 0)  -->
<svg version="1.1" id="Camada_1" xmlns="http://www.w3.org/2000/svg" xmlns:xlink="http://www.w3.org/1999/xlink" x="0px" y="0px"
	 viewBox="0 0 512 512" style="enable-background:new 0 0 512 512;" xml:space="preserve">
<style type="text/css">
	.st0{fill:#4D4D4D;}
	.st1{fill:#F2F2F2;}
</style>
<path class="st0" d="M350,380.07V388H157v-7.79c-53.97,3.86-90,10.83-90,18.79c0,12.15,83.95,22,187.5,22S442,411.15,442,399
	C442,390.94,405.07,383.9,350,380.07z"/>
<g>
	<path class="st1" d="M353.51,339.27c-0.02,16.9-0.05,33.8-0.06,50.7c0,5.54-0.31,8.73-8.26,8.69
		c-56.74-0.29-113.49,0.34-170.24,0.51c-6.67,0.02-13.55,1.3-19.99-1.78c-0.06-87.09,0.16-174.19-0.49-261.28
		c-0.1-13.32,2.04-18.37,17.05-18.1c55.98,1.02,112,0.72,167.99,0.13c11.26-0.12,14.02,3.22,13.96,14.15
		C353.09,201.28,353.42,270.28,353.51,339.27z M223.31,386.92c8.04-0.05,16.08-0.11,24.12-0.16c5.55,0.05,11.11,0.1,16.66,0.15
		c9.24-0.22,18.48-0.44,27.72-0.66c13.62-0.61,27.23-1.21,40.85-1.82c13.05-5.74,5.01-16.22,5.57-24.77
		c1.06-4.96,3.06-9.93,3.05-14.89c-0.11-48.3,3.69-96.56,1.47-144.91c-0.39-8.46-4.08-8.66-10.09-9.5
		c-38.28-5.35-38.37-5.55-41.66-43.33c-0.3-3.38-0.86-6.74-1.04-10.12c-0.4-7.49-3.37-10.63-11.67-10.12
		c-33.31,2.05-66.65,3.71-100.01,4.76c-8.67,0.27-9.94,3.87-10.15,11.26c-1.93,67.85-3.72,135.7-2.5,203.59
		c0.29,7.11,0.25,14.26,0.97,21.33c0.79,7.81,1.88,15.87,12.63,16.06C193.57,389.94,208.54,387,223.31,386.92z M335.4,155.35
		c-0.56-9.16-3.2-17.97-13.31-18.38c-9.1-0.37-13.15,7.32-13.58,15.98c-0.45,9.11,2.32,18.04,12.16,19.05
		C331.13,173.06,333.98,164,335.4,155.35z"/>
	<path class="st1" d="M246.9,284.95c27.07,0.36,44.73,6.43,61.03,17.24c3.54,2.35,4.87,5.03,2.96,8.1
		c-2.14,3.43-4.97,0.21-7.17-0.87c-33.08-16.19-66.09-16.24-99.2-0.03c-3.58,1.75-8.59,5.95-10.97-0.62
		c-1.8-4.96,2.68-7.84,6.98-9.97C217.5,290.4,235.03,284.31,246.9,284.95z"/>
	<path class="st1" d="M226.78,257.92c-4.85-0.29-10.7,0.62-9.67-7.42c0.76-5.87,4.07-8.82,10.01-9.06c6.53-0.26,8.82,3.73,9.48,9.28
		C237.52,258.67,232,258.14,226.78,257.92z"/>
	<path class="st1" d="M267.85,251.14c1.36-8.07,8.78-7.29,12.96-8.83c4.75-1.74,6.28,4.46,6.76,9.01c0.71,6.78-3.79,6.54-8.5,6.7
		C273.33,258.22,269.82,255.77,267.85,251.14z"/>
</g>
</svg>
