<?xml version="1.0" encoding="utf-8"?>
<!-- Generator: Adobe Illustrator 24.3.0, SVG Export Plug-In . SVG Version: 6.00 Build 0)  -->
<svg version="1.0" id="katman_1" xmlns="http://www.w3.org/2000/svg" xmlns:xlink="http://www.w3.org/1999/xlink" x="0px" y="0px"
	 viewBox="0 0 200.41 178.14" style="enable-background:new 0 0 200.41 178.14;" xml:space="preserve">
<style type="text/css">
	.st0{fill:#46B000;stroke:#45413C;stroke-width:4.4535;stroke-linecap:round;stroke-linejoin:round;}
	.st1{fill:#FFE500;stroke:#45413C;stroke-width:4.4535;stroke-linecap:round;stroke-linejoin:round;}
	.st2{fill:#009FD9;}
	.st3{fill:#FFFFFF;}
	.st4{fill:none;stroke:#45413C;stroke-width:4.4535;stroke-linecap:round;stroke-linejoin:round;}
	.st5{opacity:0.15;fill:#45413C;enable-background:new    ;}
</style>
<path class="st0" d="M193.73,23.38h-28.15c-22.22,0.06-44.3-3.51-65.38-10.55c-21-7.05-43-10.63-65.15-10.6H6.68
	c-2.58,0-4.45,1.56-4.45,3.52v115.79c0.16,1.04,0.71,1.98,1.54,2.63c0.83,0.65,1.87,0.97,2.91,0.89h28.37
	c22.15-0.01,44.15,3.57,65.15,10.6c21.02,7.07,43.06,10.65,65.24,10.6h28.28c1.05,0.09,2.1-0.22,2.92-0.88
	c0.83-0.65,1.37-1.6,1.53-2.64V26.72c-0.2-1.01-0.77-1.9-1.59-2.52C195.77,23.59,194.75,23.3,193.73,23.38z"/>
<path class="st1" d="M100.2,122.34c0,0-15.81-12.34-33.8-27.21C49.92,81.5,30.77,66.94,30.77,66.94s15.99-11.13,35.32-22.4
	c19.33-11.27,34.11-18.39,34.11-18.39s15.23,11.94,33.76,26.72c19.77,15.85,35.63,28.59,35.63,28.59s-16.92,12.07-35.85,23.11
	S100.2,122.34,100.2,122.34z"/>
<path class="st2" d="M74.9,81.17c1.07,3.94,2.79,7.67,5.06,10.97c2.27,3.3,5.04,6.1,8.17,8.25c3.12,2.15,6.53,3.6,10.02,4.27
	c3.5,0.67,7.02,0.55,10.36-0.36c3.34-0.91,6.44-2.59,9.11-4.93c2.68-2.35,4.88-5.33,6.48-8.76c1.6-3.43,2.58-7.25,2.86-11.25
	c0.29-3.99-0.12-8.08-1.19-12.02c-1.07-3.94-2.79-7.67-5.06-10.97c-2.27-3.3-5.04-6.1-8.17-8.24c-3.12-2.15-6.53-3.6-10.02-4.27
	c-3.5-0.67-7.02-0.55-10.36,0.36c-3.34,0.91-6.44,2.59-9.11,4.94c-2.68,2.35-4.88,5.32-6.48,8.76c-1.6,3.43-2.58,7.25-2.86,11.25
	C73.42,73.14,73.83,77.22,74.9,81.17z"/>
<path class="st3" d="M74.46,64.04c-0.6,2.49-0.93,5.05-0.98,7.62c0,0.89,0,1.74,0,2.63c11.35-0.91,22.78,0.26,33.71,3.43
	c6.5,1.84,12.69,4.61,18.39,8.24c0.86-2.97,1.31-6.04,1.34-9.13c0,0,0,0,0-0.22c-6-4.02-12.62-7.03-19.6-8.91
	C96.67,64.56,85.55,63.33,74.46,64.04z"/>
<path class="st3" d="M85.69,85.33c0,0.64,0.27,1.25,0.76,1.7c0.48,0.45,1.14,0.7,1.83,0.7c0.68,0,1.34-0.25,1.83-0.7
	c0.48-0.45,0.76-1.06,0.76-1.7s-0.27-1.25-0.76-1.7c-0.48-0.45-1.14-0.7-1.83-0.7c-0.68,0-1.34,0.25-1.83,0.7
	C85.96,84.08,85.69,84.69,85.69,85.33z"/>
<path class="st3" d="M99.71,96.95c0,0.24,0.05,0.48,0.15,0.7c0.1,0.22,0.24,0.42,0.42,0.59c0.18,0.17,0.4,0.3,0.64,0.4
	c0.24,0.09,0.49,0.14,0.75,0.14c0.26,0,0.51-0.05,0.75-0.14c0.24-0.09,0.45-0.23,0.64-0.4c0.18-0.17,0.33-0.37,0.42-0.59
	c0.1-0.22,0.15-0.46,0.15-0.7c0-0.24-0.05-0.48-0.15-0.7c-0.1-0.22-0.24-0.42-0.42-0.59c-0.18-0.17-0.4-0.3-0.64-0.4
	s-0.49-0.14-0.75-0.14c-0.26,0-0.51,0.05-0.75,0.14c-0.24,0.09-0.45,0.23-0.64,0.4c-0.18,0.17-0.33,0.37-0.42,0.59
	C99.76,96.48,99.71,96.71,99.71,96.95z"/>
<path class="st3" d="M97.75,89.56c0,0.48,0.21,0.95,0.57,1.29c0.37,0.34,0.87,0.53,1.39,0.53c0.52,0,1.02-0.19,1.39-0.53
	c0.37-0.34,0.57-0.81,0.57-1.29c0-0.48-0.21-0.95-0.57-1.29c-0.37-0.34-0.87-0.53-1.39-0.53c-0.52,0-1.02,0.19-1.39,0.53
	C97.96,88.61,97.75,89.08,97.75,89.56z"/>
<path class="st3" d="M114.45,63.82c0,0.48,0.21,0.95,0.57,1.29c0.37,0.34,0.87,0.53,1.39,0.53c0.52,0,1.02-0.19,1.39-0.53
	c0.37-0.34,0.57-0.81,0.57-1.29c0-0.48-0.21-0.95-0.57-1.29c-0.37-0.34-0.87-0.53-1.39-0.53c-0.52,0-1.02,0.19-1.39,0.53
	C114.66,62.87,114.45,63.33,114.45,63.82z"/>
<path class="st4" d="M74.9,81.17c1.07,3.94,2.79,7.67,5.06,10.97c2.27,3.3,5.04,6.1,8.17,8.25c3.12,2.15,6.53,3.6,10.02,4.27
	c3.5,0.67,7.02,0.55,10.36-0.36c3.34-0.91,6.44-2.59,9.11-4.93c2.68-2.35,4.88-5.33,6.48-8.76c1.6-3.43,2.58-7.25,2.86-11.25
	c0.29-3.99-0.12-8.08-1.19-12.02c-1.07-3.94-2.79-7.67-5.06-10.97c-2.27-3.3-5.04-6.1-8.17-8.24c-3.12-2.15-6.53-3.6-10.02-4.27
	c-3.5-0.67-7.02-0.55-10.36,0.36c-3.34,0.91-6.44,2.59-9.11,4.94c-2.68,2.35-4.88,5.32-6.48,8.76c-1.6,3.43-2.58,7.25-2.86,11.25
	C73.42,73.14,73.83,77.22,74.9,81.17L74.9,81.17z"/>
<path class="st5" d="M48.99,171.46c0,1.77,5.4,3.47,15,4.72c9.6,1.25,22.63,1.96,36.21,1.96s26.61-0.7,36.21-1.96
	c9.6-1.25,15-2.95,15-4.72c0-1.77-5.4-3.47-15-4.72c-9.61-1.25-22.63-1.96-36.21-1.96s-26.61,0.7-36.21,1.96
	C54.38,167.99,48.99,169.69,48.99,171.46z"/>
</svg>
