<?xml version="1.0" encoding="utf-8"?>
<!-- Generator: Adobe Illustrator 24.1.1, SVG Export Plug-In . SVG Version: 6.00 Build 0)  -->
<svg version="1.1" id="flag-icons-us" xmlns="http://www.w3.org/2000/svg" xmlns:xlink="http://www.w3.org/1999/xlink" x="0px"
	 y="0px" viewBox="0 0 640 550.5" style="enable-background:new 0 0 640 550.5;" xml:space="preserve">
<style type="text/css">
	.st0{fill:#BD3D44;}
	.st1{stroke:#FFFFFF;stroke-width:37;}
	.st2{fill:#192F5D;}
	.st3{fill:none;}
	.st4{fill:#FFFFFF;}
	.st5{fill:#0D1117;}
</style>
<path class="st0" d="M0,70.5h640v480H0"/>
<path class="st1" d="M0,125.8h640 M0,199.5h640 M0,273.5h640 M0,347.5h640 M0,421.5h640 M0,495.5h640"/>
<path class="st2" d="M0,70.5h364.8V329H0"/>
<path class="st3" d=""/>
<path class="st4" d="M30,81.5l9,27l-23-17h28l-23,17L30,81.5z"/>
<path class="st4" d="M91,81.5l9,27l-23-17h28l-23,17L91,81.5z"/>
<path class="st4" d="M152,81.5l9,27l-23-17h28l-23,17L152,81.5z"/>
<path class="st4" d="M213,81.5l9,27l-23-17h28l-23,17L213,81.5z"/>
<path class="st4" d="M274,81.5l9,27l-23-17h28l-23,17L274,81.5z"/>
<path class="st4" d="M334,81.5l9,27l-23-17h28l-23,17L334,81.5z"/>
<path class="st4" d="M61,107.5l9,27l-23-17h28l-23,17L61,107.5z"/>
<path class="st4" d="M122,107.5l9,27l-23-17h28l-23,17L122,107.5z"/>
<path class="st4" d="M183,107.5l9,27l-23-17h28l-23,17L183,107.5z"/>
<path class="st4" d="M243,107.5l9,27l-23-17h28l-23,17L243,107.5z"/>
<path class="st4" d="M304,107.5l9,27l-23-17h28l-23,17L304,107.5z"/>
<path class="st4" d="M30,133.5l9,27l-23-17h28l-23,17L30,133.5z"/>
<path class="st4" d="M91,133.5l9,27l-23-17h28l-23,17L91,133.5z"/>
<path class="st4" d="M152,133.5l9,27l-23-17h28l-23,17L152,133.5z"/>
<path class="st4" d="M213,133.5l9,27l-23-17h28l-23,17L213,133.5z"/>
<path class="st4" d="M274,133.5l9,27l-23-17h28l-23,17L274,133.5z"/>
<path class="st4" d="M334,133.5l9,27l-23-17h28l-23,17L334,133.5z"/>
<path class="st4" d="M61,159.5l9,27l-23-17h28l-23,17L61,159.5z"/>
<path class="st4" d="M122,159.5l9,27l-23-17h28l-23,17L122,159.5z"/>
<path class="st4" d="M183,159.5l9,27l-23-17h28l-23,17L183,159.5z"/>
<path class="st4" d="M243,159.5l9,27l-23-17h28l-23,17L243,159.5z"/>
<path class="st4" d="M304,159.5l9,27l-23-17h28l-23,17L304,159.5z"/>
<path class="st4" d="M30,185.5l9,27l-23-17h28l-23,17L30,185.5z"/>
<path class="st4" d="M91,185.5l9,27l-23-17h28l-23,17L91,185.5z"/>
<path class="st4" d="M152,185.5l9,27l-23-17h28l-23,17L152,185.5z"/>
<path class="st4" d="M213,185.5l9,27l-23-17h28l-23,17L213,185.5z"/>
<path class="st4" d="M274,185.5l9,27l-23-17h28l-23,17L274,185.5z"/>
<path class="st4" d="M334,185.5l9,27l-23-17h28l-23,17L334,185.5z"/>
<path class="st4" d="M61,211.5l9,27l-23-17h28l-23,17L61,211.5z"/>
<path class="st4" d="M122,211.5l9,27l-23-17h28l-23,17L122,211.5z"/>
<path class="st4" d="M183,211.5l9,27l-23-17h28l-23,17L183,211.5z"/>
<path class="st4" d="M243,211.5l9,27l-23-17h28l-23,17L243,211.5z"/>
<path class="st4" d="M304,211.5l9,27l-23-17h28l-23,17L304,211.5z"/>
<path class="st4" d="M30,236.5l9,27l-23-17h28l-23,17L30,236.5z"/>
<path class="st4" d="M91,236.5l9,27l-23-17h28l-23,17L91,236.5z"/>
<path class="st4" d="M152,236.5l9,27l-23-17h28l-23,17L152,236.5z"/>
<path class="st4" d="M213,236.5l9,27l-23-17h28l-23,17L213,236.5z"/>
<path class="st4" d="M274,236.5l9,27l-23-17h28l-23,17L274,236.5z"/>
<path class="st4" d="M334,236.5l9,27l-23-17h28l-23,17L334,236.5z"/>
<path class="st4" d="M61,262.5l9,27l-23-17h28l-23,17L61,262.5z"/>
<path class="st4" d="M122,262.5l9,27l-23-17h28l-23,17L122,262.5z"/>
<path class="st4" d="M183,262.5l9,27l-23-17h28l-23,17L183,262.5z"/>
<path class="st4" d="M243,262.5l9,27l-23-17h28l-23,17L243,262.5z"/>
<path class="st4" d="M304,262.5l9,27l-23-17h28l-23,17L304,262.5z"/>
<path class="st4" d="M30,288.5l9,27l-23-17h28l-23,17L30,288.5z"/>
<path class="st4" d="M91,288.5l9,27l-23-17h28l-23,17L91,288.5z"/>
<path class="st4" d="M152,288.5l9,27l-23-17h28l-23,17L152,288.5z"/>
<path class="st4" d="M213,288.5l9,27l-23-17h28l-23,17L213,288.5z"/>
<path class="st4" d="M274,288.5l9,27l-23-17h28l-23,17L274,288.5z"/>
<path class="st4" d="M334,288.5l9,27l-23-17h28l-23,17L334,288.5z"/>
<path marker-mid="url(#a)" class="st4" d="M0,70.5"/>
<rect class="st5" width="640" height="70"/>
</svg>
