<?xml version="1.0" encoding="utf-8"?>
<!-- Generator: Adobe Illustrator 24.1.1, SVG Export Plug-In . SVG Version: 6.00 Build 0)  -->
<svg version="1.1" id="flag-icons-us" xmlns="http://www.w3.org/2000/svg" xmlns:xlink="http://www.w3.org/1999/xlink" x="0px"
	 y="0px" viewBox="0 0 640 570" style="enable-background:new 0 0 640 570;" xml:space="preserve">
<style type="text/css">
	.st0{fill:#BD3D44;}
	.st1{stroke:#FFFFFF;stroke-width:37;}
	.st2{fill:#192F5D;}
	.st3{fill:#192F5D;enable-background:new    ;}
	.st4{fill:#FFFFFF;}
	.st5{fill:#0D1117;}
</style>
<path class="st0" d="M0,90h640v480H0"/>
<path class="st1" d="M0,145.3h640 M0,219h640 M0,293h640 M0,367h640 M0,441h640 M0,515h640"/>
<path class="st2" d="M0,90h364.8v258.5H0"/>
<path class="st3" d="M0,19.5"/>
<path class="st4" d="M30,101l9,27l-23-17h28l-23,17L30,101z"/>
<path class="st4" d="M91,101l9,27l-23-17h28l-23,17L91,101z"/>
<path class="st4" d="M152,101l9,27l-23-17h28l-23,17L152,101z"/>
<path class="st4" d="M213,101l9,27l-23-17h28l-23,17L213,101z"/>
<path class="st4" d="M274,101l9,27l-23-17h28l-23,17L274,101z"/>
<path class="st4" d="M334,101l9,27l-23-17h28l-23,17L334,101z"/>
<path class="st4" d="M61,127l9,27l-23-17h28l-23,17L61,127z"/>
<path class="st4" d="M122,127l9,27l-23-17h28l-23,17L122,127z"/>
<path class="st4" d="M183,127l9,27l-23-17h28l-23,17L183,127z"/>
<path class="st4" d="M243,127l9,27l-23-17h28l-23,17L243,127z"/>
<path class="st4" d="M304,127l9,27l-23-17h28l-23,17L304,127z"/>
<path class="st4" d="M30,153l9,27l-23-17h28l-23,17L30,153z"/>
<path class="st4" d="M91,153l9,27l-23-17h28l-23,17L91,153z"/>
<path class="st4" d="M152,153l9,27l-23-17h28l-23,17L152,153z"/>
<path class="st4" d="M213,153l9,27l-23-17h28l-23,17L213,153z"/>
<path class="st4" d="M274,153l9,27l-23-17h28l-23,17L274,153z"/>
<path class="st4" d="M334,153l9,27l-23-17h28l-23,17L334,153z"/>
<path class="st4" d="M61,179l9,27l-23-17h28l-23,17L61,179z"/>
<path class="st4" d="M122,179l9,27l-23-17h28l-23,17L122,179z"/>
<path class="st4" d="M183,179l9,27l-23-17h28l-23,17L183,179z"/>
<path class="st4" d="M243,179l9,27l-23-17h28l-23,17L243,179z"/>
<path class="st4" d="M304,179l9,27l-23-17h28l-23,17L304,179z"/>
<path class="st4" d="M30,205l9,27l-23-17h28l-23,17L30,205z"/>
<path class="st4" d="M91,205l9,27l-23-17h28l-23,17L91,205z"/>
<path class="st4" d="M152,205l9,27l-23-17h28l-23,17L152,205z"/>
<path class="st4" d="M213,205l9,27l-23-17h28l-23,17L213,205z"/>
<path class="st4" d="M274,205l9,27l-23-17h28l-23,17L274,205z"/>
<path class="st4" d="M334,205l9,27l-23-17h28l-23,17L334,205z"/>
<path class="st4" d="M61,231l9,27l-23-17h28l-23,17L61,231z"/>
<path class="st4" d="M122,231l9,27l-23-17h28l-23,17L122,231z"/>
<path class="st4" d="M183,231l9,27l-23-17h28l-23,17L183,231z"/>
<path class="st4" d="M243,231l9,27l-23-17h28l-23,17L243,231z"/>
<path class="st4" d="M304,231l9,27l-23-17h28l-23,17L304,231z"/>
<path class="st4" d="M30,256l9,27l-23-17h28l-23,17L30,256z"/>
<path class="st4" d="M91,256l9,27l-23-17h28l-23,17L91,256z"/>
<path class="st4" d="M152,256l9,27l-23-17h28l-23,17L152,256z"/>
<path class="st4" d="M213,256l9,27l-23-17h28l-23,17L213,256z"/>
<path class="st4" d="M274,256l9,27l-23-17h28l-23,17L274,256z"/>
<path class="st4" d="M334,256l9,27l-23-17h28l-23,17L334,256z"/>
<path class="st4" d="M61,282l9,27l-23-17h28l-23,17L61,282z"/>
<path class="st4" d="M122,282l9,27l-23-17h28l-23,17L122,282z"/>
<path class="st4" d="M183,282l9,27l-23-17h28l-23,17L183,282z"/>
<path class="st4" d="M243,282l9,27l-23-17h28l-23,17L243,282z"/>
<path class="st4" d="M304,282l9,27l-23-17h28l-23,17L304,282z"/>
<path class="st4" d="M30,308l9,27l-23-17h28l-23,17L30,308z"/>
<path class="st4" d="M91,308l9,27l-23-17h28l-23,17L91,308z"/>
<path class="st4" d="M152,308l9,27l-23-17h28l-23,17L152,308z"/>
<path class="st4" d="M213,308l9,27l-23-17h28l-23,17L213,308z"/>
<path class="st4" d="M274,308l9,27l-23-17h28l-23,17L274,308z"/>
<path class="st4" d="M334,308l9,27l-23-17h28l-23,17L334,308z"/>
<path marker-mid="url(#a)" class="st4" d="M0,90"/>
<rect class="st5" width="640" height="90"/>
</svg>
